<svg fill="#000000" xmlns="http://www.w3.org/2000/svg"  viewBox="0 0 50 50" width="50px" height="50px"><path d="M 25 2 C 12.360055 2 2 12.259016 2 25 C 2 37.740984 12.360055 48 25 48 C 37.639945 48 48 37.740984 48 25 C 48 12.259016 37.639945 2 25 2 z M 18.064453 5.1777344 L 24 8.4003906 L 24 15.800781 L 17 19.599609 L 10 15.800781 L 10 10.306641 C 12.237378 8.0244815 14.987229 6.2530524 18.064453 5.1777344 z M 32.048828 5.2148438 C 35.080761 6.2937805 37.78987 8.0522747 40 10.306641 L 40 15.800781 L 33 19.599609 L 26 15.800781 L 26 8.5 L 32.048828 5.2148438 z M 41 17.599609 L 45.386719 19.949219 C 45.78446 21.565595 46 23.256458 46 25 C 46 26.807043 45.771987 28.558989 45.345703 30.228516 L 41 32.599609 L 34 28.800781 L 34 21.400391 L 41 17.599609 z M 9 17.699219 L 16 21.5 L 16 28.900391 L 9 32.699219 L 4.6855469 30.345703 C 4.2396601 28.640888 4 26.849516 4 25 C 4 23.297688 4.2062329 21.646071 4.5859375 20.064453 L 9 17.699219 z M 33 30.599609 L 40 34.400391 L 40 39.693359 C 37.683417 42.056309 34.817056 43.871457 31.607422 44.933594 L 26 41.800781 L 26 34.400391 L 33 30.599609 z M 17 30.699219 L 24 34.5 L 24 41.900391 L 18.412109 44.939453 C 15.194653 43.878216 12.321241 42.061061 10 39.693359 L 10 34.5 L 17 30.699219 z"/></svg>